<?xml version="1.0" encoding="UTF-8"?>
<svg width="50px" height="50px" viewBox="0 0 50 50" version="1.1" xmlns="http://www.w3.org/2000/svg" xmlns:xlink="http://www.w3.org/1999/xlink">
    <title>Shape Copy 5</title>
    <g id="Page-1" stroke="none" stroke-width="1" fill="none" fill-rule="evenodd">
        <g id="5---Grants-FIN-A" transform="translate(-993.000000, -2399.000000)" fill="#81A1C1" fill-rule="nonzero">
            <g id="Group-14" transform="translate(938.000000, 2399.000000)">
                <path d="M55,0 L55,50 L105,50 L105,0 L55,0 Z M70.5518681,41.5386813 L63.1336264,41.5386813 L63.1336264,19.2204396 L70.5518681,19.2204396 L70.5518681,41.5386813 Z M66.8427473,16.1742857 L66.7937363,16.1742857 C64.3052747,16.1742857 62.6923077,14.4598901 62.6923077,12.317033 C62.6923077,10.1271429 64.3524176,8.46131868 66.8913187,8.46131868 C69.4307692,8.46131868 70.9913187,10.1271429 71.0398901,12.317033 C71.0398901,14.4598901 69.4307692,16.1742857 66.8427473,16.1742857 Z M97.3076923,41.5387912 L89.8874725,41.5387912 L89.8874725,29.5983516 C89.8874725,26.5993407 88.8153846,24.5521978 86.1297802,24.5521978 C84.0787912,24.5521978 82.86,25.9305495 82.3230769,27.2657143 C82.1279121,27.7426374 82.0769231,28.4056044 82.0769231,29.0743956 L82.0769231,41.5387912 L74.6552747,41.5387912 C74.6552747,41.5387912 74.7547253,21.3142857 74.6552747,19.2205495 L82.0769231,19.2205495 L82.0769231,22.3830769 C83.062967,20.8658242 84.8226374,18.6965934 88.7643956,18.6965934 C93.6475824,18.6965934 97.3076923,21.8856044 97.3076923,28.7403297 L97.3076923,41.5387912 Z" id="Shape-Copy-5"></path>
            </g>
        </g>
    </g>
</svg>