<?xml version="1.0" encoding="UTF-8"?>
<svg width="28px" height="30px" viewBox="0 0 28 30" version="1.1" xmlns="http://www.w3.org/2000/svg" xmlns:xlink="http://www.w3.org/1999/xlink">
    <!-- Generator: Sketch 53.2 (72643) - https://sketchapp.com -->
    <title>np_calendar_1624811_000000 2</title>
    <desc>Created with Sketch.</desc>
    <defs>
        <filter x="-27.1%" y="-25.0%" width="154.2%" height="150.0%" filterUnits="objectBoundingBox" id="filter-1">
            <feOffset dx="0" dy="1" in="SourceAlpha" result="shadowOffsetOuter1"></feOffset>
            <feGaussianBlur stdDeviation="1" in="shadowOffsetOuter1" result="shadowBlurOuter1"></feGaussianBlur>
            <feColorMatrix values="0 0 0 0 0   0 0 0 0 0   0 0 0 0 0  0 0 0 0.5 0" type="matrix" in="shadowBlurOuter1" result="shadowMatrixOuter1"></feColorMatrix>
            <feMerge>
                <feMergeNode in="shadowMatrixOuter1"></feMergeNode>
                <feMergeNode in="SourceGraphic"></feMergeNode>
            </feMerge>
        </filter>
    </defs>
    <g id="Symbols" stroke="none" stroke-width="1" fill="none" fill-rule="evenodd">
        <g id="Header-NAV-FF" transform="translate(-665.000000, -85.000000)" fill="#FFFFFF" fill-rule="nonzero">
            <g id="Group-2" transform="translate(667.000000, 86.000000)">
                <g id="np_calendar_1624811_000000-2" filter="url(#filter-1)">
                    <g id="np_calendar_1624811_000000">
                        <path d="M5.10734328,4.0664 L6.41004179,4.0664 C6.67729791,4.0664 6.8928,3.86733707 6.8928,3.620864 L6.8928,0.443976 C6.89419916,0.198872267 6.67731582,-0.000173333333 6.41004179,-0.000173333333 L5.10734328,-0.000173333333 C4.84008716,-0.000173333333 4.62458507,0.1988896 4.62458507,0.445362667 L4.62458507,3.62225067 C4.62458507,3.8673544 4.84006925,4.0664 5.10734328,4.0664 L5.10734328,4.0664 Z" id="Path"></path>
                        <path d="M17.4121791,4.0664 L18.7148776,4.0664 C18.9821337,4.0664 19.1976358,3.86733707 19.1976358,3.620864 L19.1976358,0.443976 C19.199035,0.198872267 18.9821516,-0.000173333333 18.7148776,-0.000173333333 L17.4121791,-0.000173333333 C17.144923,-0.000173333333 16.9294209,0.1988896 16.9294209,0.445362667 L16.9294209,3.62225067 C16.9294209,3.8673544 17.1463057,4.0664 17.4121791,4.0664 L17.4121791,4.0664 Z" id="Path"></path>
                        <path d="M20.5103284,2.03389333 L20.5103284,3.618264 C20.5103284,4.55669067 19.7197612,5.31908 18.7472597,5.31908 L17.4095642,5.31908 C16.4370985,5.31908 15.6464955,4.55533867 15.6464955,3.618264 L15.6464955,2.03389333 L8.19001791,2.03389333 L8.19001791,3.618264 C8.19001791,4.55669067 7.39945075,5.31908 6.42694925,5.31908 L5.08925373,5.31908 C4.11678806,5.31908 3.32618507,4.55533867 3.32618507,3.618264 L3.32618507,2.03389333 L0.165277612,2.03389333 L0.166676776,7.5088 L23.8335424,7.5088 L23.8335424,2.03389333 L20.5103284,2.03389333 Z" id="Path"></path>
                        <path d="M0.358208955,25.6533333 L24,25.6533333 L24,10.4 L0.358208955,10.4 L0.358208955,25.6533333 Z M18.2686567,12.1813392 C18.2686567,11.7725529 18.6460339,11.44 19.1113665,11.44 L21.3662454,11.44 C21.831578,11.44 22.2089552,11.7713048 22.2089552,12.1813392 L22.2089552,14.1653274 C22.2089552,14.5741137 21.831578,14.9066667 21.3662454,14.9066667 L19.1113665,14.9066667 C18.6460339,14.9066667 18.2686567,14.5753619 18.2686567,14.1653274 L18.2686567,12.1813392 Z M18.2686567,17.0346726 C18.2686567,16.6258863 18.6460339,16.2933333 19.1113665,16.2933333 L21.3662454,16.2933333 C21.831578,16.2933333 22.2089552,16.6246381 22.2089552,17.0346726 L22.2089552,19.0186608 C22.2089552,19.4274471 21.831578,19.76 21.3662454,19.76 L19.1113665,19.76 C18.6460339,19.76 18.2686567,19.4286952 18.2686567,19.0186608 L18.2686567,17.0346726 Z M18.2686567,21.8880059 C18.2686567,21.4792196 18.6460339,21.1466667 19.1113665,21.1466667 L21.3662454,21.1466667 C21.831578,21.1466667 22.2089552,21.4779714 22.2089552,21.8880059 L22.2089552,23.8719941 C22.2089552,24.2807804 21.831578,24.6133333 21.3662454,24.6133333 L19.1113665,24.6133333 C18.6460339,24.6133333 18.2686567,24.2820286 18.2686567,23.8719941 L18.2686567,21.8880059 Z M12.8955224,12.1813392 C12.8955224,11.7725529 13.2728996,11.44 13.7382322,11.44 L15.9931111,11.44 C16.4584437,11.44 16.8358209,11.7713048 16.8358209,12.1813392 L16.8358209,14.1653274 C16.8358209,14.5741137 16.4584437,14.9066667 15.9931111,14.9066667 L13.7382322,14.9066667 C13.2728996,14.9066667 12.8955224,14.5753619 12.8955224,14.1653274 L12.8955224,12.1813392 Z M12.8955224,17.0346726 C12.8955224,16.6258863 13.2728996,16.2933333 13.7382322,16.2933333 L15.9931111,16.2933333 C16.4584437,16.2933333 16.8358209,16.6246381 16.8358209,17.0346726 L16.8358209,19.0186608 C16.8358209,19.4274471 16.4584437,19.76 15.9931111,19.76 L13.7382322,19.76 C13.2728996,19.76 12.8955224,19.4286952 12.8955224,19.0186608 L12.8955224,17.0346726 Z M12.8955224,21.8880059 C12.8955224,21.4792196 13.2728996,21.1466667 13.7382322,21.1466667 L15.9931111,21.1466667 C16.4584437,21.1466667 16.8358209,21.4779714 16.8358209,21.8880059 L16.8358209,23.8719941 C16.8358209,24.2807804 16.4584437,24.6133333 15.9931111,24.6133333 L13.7382322,24.6133333 C13.2728996,24.6133333 12.8955224,24.2820286 12.8955224,23.8719941 L12.8955224,21.8880059 Z M7.1641791,12.1813392 C7.1641791,11.7725529 7.5415563,11.44 8.0068889,11.44 L10.2617678,11.44 C10.7271004,11.44 11.1044776,11.7713048 11.1044776,12.1813392 L11.1044776,14.1653274 C11.1044776,14.5741137 10.7271004,14.9066667 10.2617678,14.9066667 L8.0068889,14.9066667 C7.5415563,14.9066667 7.1641791,14.5753619 7.1641791,14.1653274 L7.1641791,12.1813392 Z M7.1641791,17.0346726 C7.1641791,16.6258863 7.5415563,16.2933333 8.0068889,16.2933333 L10.2617678,16.2933333 C10.7271004,16.2933333 11.1044776,16.6246381 11.1044776,17.0346726 L11.1044776,19.0186608 C11.1044776,19.4274471 10.7271004,19.76 10.2617678,19.76 L8.0068889,19.76 C7.5415563,19.76 7.1641791,19.4286952 7.1641791,19.0186608 L7.1641791,17.0346726 Z M7.1641791,21.8880059 C7.1641791,21.4792196 7.5415563,21.1466667 8.0068889,21.1466667 L10.2617678,21.1466667 C10.7271004,21.1466667 11.1044776,21.4779714 11.1044776,21.8880059 L11.1044776,23.8719941 C11.1044776,24.2807804 10.7271004,24.6133333 10.2617678,24.6133333 L8.0068889,24.6133333 C7.5415563,24.6133333 7.1641791,24.2820286 7.1641791,23.8719941 L7.1641791,21.8880059 Z M1.79104478,12.1813392 C1.79104478,11.7725529 2.16842197,11.44 2.63375457,11.44 L4.88863349,11.44 C5.35396609,11.44 5.73134328,11.7713048 5.73134328,12.1813392 L5.73134328,14.1653274 C5.73134328,14.5741137 5.35396609,14.9066667 4.88863349,14.9066667 L2.63375457,14.9066667 C2.16842197,14.9066667 1.79104478,14.5753619 1.79104478,14.1653274 L1.79104478,12.1813392 Z M1.79104478,17.0346726 C1.79104478,16.6258863 2.16842197,16.2933333 2.63375457,16.2933333 L4.88863349,16.2933333 C5.35396609,16.2933333 5.73134328,16.6246381 5.73134328,17.0346726 L5.73134328,19.0186608 C5.73134328,19.4274471 5.35396609,19.76 4.88863349,19.76 L2.63375457,19.76 C2.16842197,19.76 1.79104478,19.4286952 1.79104478,19.0186608 L1.79104478,17.0346726 Z M1.79104478,21.8880059 C1.79104478,21.4792196 2.16842197,21.1466667 2.63375457,21.1466667 L4.88863349,21.1466667 C5.35396609,21.1466667 5.73134328,21.4779714 5.73134328,21.8880059 L5.73134328,23.8719941 C5.73134328,24.2807804 5.35396609,24.6133333 4.88863349,24.6133333 L2.63375457,24.6133333 C2.16842197,24.6133333 1.79104478,24.2820286 1.79104478,23.8719941 L1.79104478,21.8880059 Z" id="Shape"></path>
                    </g>
                </g>
            </g>
        </g>
    </g>
</svg>