<?xml version="1.0" encoding="UTF-8"?>
<svg width="50px" height="50px" viewBox="0 0 50 50" version="1.1" xmlns="http://www.w3.org/2000/svg" xmlns:xlink="http://www.w3.org/1999/xlink">
    <title>Group 6</title>
    <g id="Page-1" stroke="none" stroke-width="1" fill="none" fill-rule="evenodd">
        <g id="5---Grants-FIN-A" transform="translate(-1048.000000, -2399.000000)" fill="#81A1C1" fill-rule="nonzero">
            <g id="Group-14" transform="translate(938.000000, 2399.000000)">
                <g id="Group-6" transform="translate(110.000000, 0.000000)">
                    <g id="Group-5">
                        <path d="M22.2584569,37.3433073 C22.2584569,37.4047576 22.2584569,37.4815704 22.2253762,37.5243662 C22.0012805,37.8217416 21.7345001,38.0697373 21.384484,38.2014165 C21.0803543,38.3155384 20.8381176,38.176178 20.7740903,37.8513694 C20.7484794,37.7229822 20.7474122,37.5880111 20.7474122,37.4563319 C20.7463451,35.0367275 20.7399424,30.0757155 20.736741,30.0153626 L19.0005336,30.0153626 C19.0005336,30.0822995 18.9983993,36.9932603 19.0026678,38.2990785 C19.0037349,38.6524176 19.0400171,39.003562 19.1830114,39.3316625 C19.336677,39.6871962 19.5917191,39.9121481 19.9716146,39.9768904 C20.2501334,40.02627 20.5222495,39.9944476 20.7868957,39.9011748 C21.3289937,39.7091427 21.7537082,39.3470251 22.1282681,38.9124839 C22.1613488,38.8740775 22.1965639,38.8367684 22.2595241,38.7676368 L22.2595241,39.8517952 L24,39.8517952 L24,35.1080537 C24,33.464259 24,30 24,30 L22.2584569,30.0043893 L22.2584569,37.3433073 L22.2584569,37.3433073 Z" id="Path-Copy-3"></path>
                        <path d="M29.721296,30.4407834 C29.3559134,29.6048578 28.5879725,29.3836169 27.921999,29.5626624 C27.5183786,29.6721424 27.1912337,29.9218937 26.9225075,30.2446317 C26.8332862,30.3529713 26.7355675,30.562808 26.7355675,30.562808 C26.7355675,30.562808 26.7355675,27.4756995 26.7355675,26 L25,26 L25,39.8617674 L26.7355675,39.8617674 L26.7355675,39.0840031 C26.7355675,39.0840031 26.858778,39.2242744 26.9033886,39.2755931 C27.3016982,39.7397428 27.7849805,39.9940558 28.3808516,39.9998808 C29.1137412,40.0077408 29.6235774,39.6268415 29.855128,38.8787281 C29.9624061,38.5309009 29.9974573,38.17281 29.9985195,37.8101574 C30.0006438,35.8725891 30.0006438,33.9350208 29.9974573,31.9974525 C29.9974573,31.4614565 29.9369143,30.934698 29.721296,30.4407834 Z M28.2109062,37.5787668 C28.2109062,37.6825448 28.1992224,37.7874631 28.1790414,37.8889602 C28.0993795,38.2949486 27.8115344,38.4774153 27.4036654,38.3873224 C27.1561824,38.3325824 26.9628695,38.1797665 26.7971728,37.9870361 C26.7897376,37.9779127 26.7408783,37.9072069 26.7408783,37.9072069 L26.7408783,37.7555314 L26.7366297,31.6007014 C26.7366297,31.6007014 26.7738053,31.4866597 26.8555915,31.4102518 C27.059526,31.2163809 27.2847037,31.0943563 27.5661757,31.1240072 C27.8062236,31.1490963 27.9974122,31.2676997 28.0866336,31.5060468 C28.1535496,31.6873731 28.2066575,31.8892269 28.2077197,32.0830978 C28.216217,33.9144933 28.2130305,35.7460028 28.2109062,37.5787668 Z" id="Shape-Copy"></path>
                        <polygon id="Path-Copy-5" points="19 26 13 26 13 28.0063019 15.0215548 28.0063019 15.0215548 40 16.9742049 40 16.9742049 28.0016948 19 28.0016948"></polygon>
                        <path d="M34.9132392,36.3584621 L34.9132392,37.578732 C34.9132392,38.0052444 34.5087666,38.3502643 34.0099997,38.3502643 C33.5099921,38.3502643 33.1055194,38.0052444 33.1055194,37.578732 L33.1055194,35.2048678 L36.9877125,35.2048678 C36.9877125,35.2048678 37.0100453,33.5485605 36.9939161,32.7971367 C36.9877125,32.4764587 36.9591761,32.1515473 36.8822518,31.8382777 C36.6812562,31.02547 36.1688415,30.4126892 35.2097698,30.1438699 C34.9281278,30.0644942 34.6253937,30.0232188 34.3288631,30.0073437 C33.3424957,29.9533681 32.478959,30.1936121 31.8040108,30.8381432 C31.2121903,31.4022402 31.0062319,32.0816966 31.0049912,32.8183036 C31.001269,34.2269586 30.9938247,35.6366719 31.009954,37.0453269 C31.0149169,37.4041053 31.062064,37.7702921 31.1575989,38.1195454 C31.3635574,38.8699109 31.8437136,39.4594081 32.691121,39.7853779 C33.3102372,40.0245635 33.9640933,40.0362052 34.6241529,39.9536545 C35.6886853,39.8203032 36.4145028,39.3334653 36.7656247,38.4560986 C37.0298968,37.7988674 36.9988789,36.3584621 36.9988789,36.3584621 L34.9132392,36.3584621 L34.9132392,36.3584621 Z M33.1055194,32.4003638 C33.1055194,31.9749098 33.5099921,31.6288315 34.0099997,31.6288315 C34.5087666,31.6288315 34.9132392,31.9749098 34.9132392,32.4003638 L34.9132392,33.7328181 L33.1055194,33.7328181 L33.1055194,32.4003638 Z" id="Shape-Copy-2"></path>
                        <path d="M0,0 L0,50 L50,50 L50,0 L0,0 Z M28.1673838,10.4217181 L29.9881948,10.4217181 L29.9881948,17.9723346 C29.9881948,18.0723936 29.9962039,18.1735497 30.0137581,18.2716339 C30.0689442,18.5827824 30.2990141,18.7292504 30.5986426,18.6253514 C30.96388,18.498961 31.2426629,18.2460706 31.4789865,17.9480878 C31.5125589,17.9055188 31.506415,17.826086 31.506415,17.7636588 L31.506415,10.4217181 L33.3405013,10.4217181 L33.3399527,20.3227342 L31.5054275,20.3227342 L31.5076218,19.2590585 C31.3047609,19.4588474 31.1316325,19.6454707 30.9413887,19.8131134 C30.6041283,20.1102185 30.2221047,20.3317308 29.7752402,20.4191727 C29.0891995,20.553243 28.5048636,20.3364485 28.2860942,19.6259416 C28.2132442,19.3892889 28.169249,19.1342042 28.1673838,18.8871286 L28.1673838,10.4217181 Z M24.0002326,10.1738745 L24.0002326,10.1738745 C25.4510885,10.1738745 26.6272209,11.3500069 26.6272209,12.8008628 L26.6272209,17.9419438 C26.6272209,19.3927997 25.4510885,20.5689321 24.0002326,20.5689321 L24.0002326,20.5689321 C22.5493767,20.5689321 21.3732443,19.3927997 21.3732443,17.9419438 L21.3732443,12.8008628 C21.3731346,11.3500069 22.549267,10.1738745 24.0002326,10.1738745 Z M16.9335639,6.91965216 C16.9335639,6.91965216 17.7679377,10.463519 18.1661989,12.1422506 L18.1668572,12.1422506 C18.5651185,10.463519 19.3994922,6.91965216 19.3994922,6.91965216 L21.487237,6.91965216 C21.487237,6.91965216 19.8832206,12.2393473 19.1659115,14.6117995 C19.140019,14.697486 19.1282796,14.7907428 19.1282796,14.8805984 L19.1291573,20.3206497 L17.2040085,20.3206497 L17.2047765,14.8805984 C17.2047765,14.7907428 17.1929274,14.6975957 17.1671447,14.6117995 C16.4498355,12.2393473 14.8458191,6.91965216 14.8458191,6.91965216 L16.9335639,6.91965216 Z M39.8896498,38.494748 C39.8896498,40.9282011 37.9455205,42.9162159 35.5131646,42.9677814 C28.5057413,43.1180894 21.4950267,43.1180894 14.4865063,42.9677814 C12.0552475,42.9162159 10.1111182,40.9282011 10.1111182,38.494748 L10.1111182,27.5496949 C10.1111182,25.117339 12.0552475,23.1293241 14.4865063,23.0777586 C21.4950267,22.9274506 28.5057413,22.9274506 35.5131646,23.0777586 C37.9455205,23.1293241 39.8896498,25.117339 39.8896498,27.5496949 L39.8896498,38.494748 Z" id="Shape-Copy-3"></path>
                    </g>
                    <path d="M24,19 C24.5514546,19 25,18.6532948 25,18.2270453 L25,12.7729547 C25,12.3467052 24.5513099,12 24,12 C23.4486901,12 23,12.3468171 23,12.7729547 L23,18.2270453 C22.9998553,18.6531829 23.4485454,19 24,19 Z" id="Path-Copy-4"></path>
                </g>
            </g>
        </g>
    </g>
</svg>