<?xml version="1.0" encoding="UTF-8"?>
<svg width="26px" height="18px" viewBox="0 0 26 18" version="1.1" xmlns="http://www.w3.org/2000/svg" xmlns:xlink="http://www.w3.org/1999/xlink">
    <!-- Generator: Sketch 63 (92445) - https://sketch.com -->
    <title>YouTube_light_icon_(2017)</title>
    <desc>Created with Sketch.</desc>
    <g id="Symbols" stroke="none" stroke-width="1" fill="none" fill-rule="evenodd">
        <g id="FLATT" transform="translate(-1920.000000, -42.000000)" fill="#FFFFFF" fill-rule="nonzero">
            <g id="Group-26">
                <g id="Group-24" transform="translate(1845.000000, 42.000000)">
                    <g id="YouTube_light_icon_(2017)" transform="translate(75.000000, 0.000000)">
                        <path d="M12.853829,0 C12.853829,0 4.80738995,0 2.7956252,0.529453154 C1.71562512,0.82592376 0.82592376,1.7155424 0.529453154,2.81671897 C0,4.82848379 0,9 0,9 C0,9 0,13.1926942 0.529453154,15.1832823 C0.82592376,16.284459 1.69444866,17.1529839 2.7956252,17.4494543 C4.82856659,18 12.853829,18 12.853829,18 C12.853829,18 20.9009712,18 22.9127359,17.4705482 C24.0139126,17.1740774 24.8824375,16.3055528 25.178908,15.2043761 C25.7084685,13.1926114 25.7084685,9.02109449 25.7084685,9.02109449 C25.7084685,9.02109449 25.7294963,4.82848379 25.178908,2.81671897 C24.8824375,1.7155424 24.0139126,0.847017529 22.9127359,0.550546924 C20.9009712,0 12.853829,0 12.853829,0 Z M10.2916415,5.14617229 L16.9832824,9.00000065 L10.2916415,12.853829 L10.2916415,5.14617229 Z" id="path7"></path>
                    </g>
                </g>
            </g>
        </g>
    </g>
</svg>