<?xml version="1.0" encoding="UTF-8"?>
<svg width="10px" height="10px" viewBox="0 0 10 10" version="1.1" xmlns="http://www.w3.org/2000/svg" xmlns:xlink="http://www.w3.org/1999/xlink">
    <title>Shape</title>
    <g id="Page-1" stroke="none" stroke-width="1" fill="none" fill-rule="evenodd">
        <g id="5-FACSE-V5---MATERIALS" transform="translate(-1294.000000, -961.000000)" fill="#737373" fill-rule="nonzero">
            <path d="M1299.72007,961.087884 L1294.08837,966.719856 C1294.02733,966.780897 1294.00091,966.865623 1294.00182,966.956722 C1294.00182,966.962188 1294,966.967655 1294,966.973121 L1294,970.610067 C1294,970.825075 1294.174,971 1294.38991,971 L1298.02669,971 C1298.03215,971 1298.03762,970.998178 1298.04308,970.998178 C1298.13509,971 1298.21891,970.972668 1298.27994,970.91163 L1303.91164,965.279657 C1304.06104,965.130247 1304.01641,964.844175 1303.81234,964.639191 L1300.36051,961.188127 C1300.15553,960.983141 1299.86947,960.939414 1299.72008,961.087912 L1299.72007,961.087884 Z M1296.0005,969.863061 C1295.76274,970.100836 1295.37647,970.100836 1295.1387,969.863061 C1294.90094,969.625285 1294.90094,969.238991 1295.1387,969.001216 C1295.37647,968.76344 1295.76274,968.76344 1296.0005,969.001216 C1296.23736,969.238991 1296.23736,969.624376 1296.0005,969.863061 Z" id="Shape"></path>
        </g>
    </g>
</svg>