<?xml version="1.0" encoding="UTF-8"?>
<svg width="40px" height="40px" viewBox="0 0 40 40" version="1.1" xmlns="http://www.w3.org/2000/svg" xmlns:xlink="http://www.w3.org/1999/xlink">
    <title>Shape Copy 5</title>
    <g id="Page-1" stroke="none" stroke-width="1" fill="none" fill-rule="evenodd">
        <g id="1.7--HOME-FIN-MENU" transform="translate(-989.000000, -794.000000)" fill="#FFFFFF" fill-rule="nonzero">
            <path d="M989,794 L989,834 L1029,834 L1029,794 L989,794 Z M1001.44149,827.230945 L995.506901,827.230945 L995.506901,809.376352 L1001.44149,809.376352 L1001.44149,827.230945 Z M998.474198,806.939429 L998.434989,806.939429 C996.44422,806.939429 995.153846,805.567912 995.153846,803.853626 C995.153846,802.101714 996.481934,800.769055 998.513055,800.769055 C1000.54462,800.769055 1001.79305,802.101714 1001.83191,803.853626 C1001.83191,805.567912 1000.54462,806.939429 998.474198,806.939429 Z M1022.84615,827.231033 L1016.90998,827.231033 L1016.90998,817.678681 C1016.90998,815.279473 1016.05231,813.641758 1013.90382,813.641758 C1012.26303,813.641758 1011.288,814.74444 1010.85846,815.812571 C1010.70233,816.19411 1010.66154,816.724484 1010.66154,817.259516 L1010.66154,827.231033 L1004.72422,827.231033 C1004.72422,827.231033 1004.80378,811.051429 1004.72422,809.37644 L1010.66154,809.37644 L1010.66154,811.906462 C1011.45037,810.692659 1012.85811,808.957275 1016.01152,808.957275 C1019.91807,808.957275 1022.84615,811.508484 1022.84615,816.992264 L1022.84615,827.231033 Z" id="Shape-Copy-5"></path>
        </g>
    </g>
</svg>