<?xml version="1.0" encoding="UTF-8"?>
<svg width="40px" height="40px" viewBox="0 0 40 40" version="1.1" xmlns="http://www.w3.org/2000/svg" xmlns:xlink="http://www.w3.org/1999/xlink">
    <title>Shape Copy 6</title>
    <g id="Page-1" stroke="none" stroke-width="1" fill="none" fill-rule="evenodd">
        <g id="1.7--HOME-FIN-MENU" transform="translate(-1097.000000, -794.000000)" fill="#FFFFFF" fill-rule="nonzero">
            <path d="M1121.445,814 C1121.445,816.455 1119.455,818.445 1117,818.445 C1114.545,818.445 1112.555,816.456667 1112.555,814 C1112.555,811.545 1114.545,809.555 1117,809.555 C1119.455,809.555 1121.445,811.545 1121.445,814 Z M1127.855,808.613333 C1127.91833,810.018333 1127.93167,810.44 1127.93167,814 C1127.93167,817.56 1127.91833,817.981667 1127.855,819.388333 C1127.68833,822.971667 1126.00667,824.69 1122.39,824.853333 C1120.98333,824.916667 1120.56167,824.931667 1117,824.931667 C1113.44,824.931667 1113.01667,824.918333 1111.61333,824.855 C1107.99,824.69 1106.31167,822.968333 1106.14833,819.39 C1106.08333,817.981667 1106.06833,817.56 1106.06833,814 C1106.06833,810.44 1106.08333,810.018333 1106.14667,808.613333 C1106.31167,805.026667 1107.995,803.311667 1111.61167,803.148333 C1113.01833,803.083333 1113.44,803.07 1117,803.07 C1120.56,803.07 1120.98333,803.083333 1122.38833,803.146667 C1126.00167,803.311667 1127.68833,805.026667 1127.855,808.613333 Z M1123.84667,814 C1123.84667,810.218333 1120.78,807.153333 1117,807.153333 C1113.21833,807.153333 1110.15333,810.218333 1110.15333,814 C1110.15333,817.781667 1113.22,820.846667 1117,820.846667 C1120.78167,820.846667 1123.84667,817.781667 1123.84667,814 Z M1125.71667,806.883333 C1125.71667,806 1125,805.283333 1124.11667,805.283333 C1123.23333,805.283333 1122.51667,806 1122.51667,806.883333 C1122.51667,807.766667 1123.23333,808.483333 1124.11667,808.483333 C1125.00167,808.483333 1125.71667,807.766667 1125.71667,806.883333 L1125.71667,806.883333 Z M1137,794 L1137,834 L1097,834 L1097,794 L1137,794 Z M1130.33333,814 C1130.33333,810.38 1130.31833,809.925 1130.25333,808.503333 C1130.035,803.666667 1127.345,800.97 1122.49833,800.748333 C1121.075,800.681667 1120.62167,800.666667 1117,800.666667 C1113.37833,800.666667 1112.92667,800.681667 1111.50333,800.746667 C1106.66,800.968333 1103.97,803.655 1103.74667,808.501667 C1103.68167,809.925 1103.66667,810.38 1103.66667,814 C1103.66667,817.621667 1103.68167,818.075 1103.74667,819.496667 C1103.97,824.34 1106.65667,827.031667 1111.50333,827.253333 C1112.92667,827.318333 1113.37833,827.333333 1117,827.333333 C1120.62167,827.333333 1121.075,827.318333 1122.49833,827.253333 C1127.335,827.031667 1130.035,824.345 1130.25333,819.496667 C1130.31833,818.075 1130.33333,817.621667 1130.33333,814 Z" id="Shape-Copy-6"></path>
        </g>
    </g>
</svg>