<?xml version="1.0" encoding="UTF-8"?>
<svg width="22px" height="18px" viewBox="0 0 22 18" version="1.1" xmlns="http://www.w3.org/2000/svg" xmlns:xlink="http://www.w3.org/1999/xlink">
    <!-- Generator: Sketch 63 (92445) - https://sketch.com -->
    <title>Fill 1</title>
    <desc>Created with Sketch.</desc>
    <g id="Symbols" stroke="none" stroke-width="1" fill="none" fill-rule="evenodd">
        <g id="FLATT" transform="translate(-1845.000000, -42.000000)" fill="#FFFFFF">
            <g id="Group-26">
                <g id="Group-24" transform="translate(1845.000000, 42.000000)">
                    <path d="M6.91076431,18 C15.212485,18 19.755102,11.0728346 19.755102,5.0757874 C19.755102,4.88090551 19.755102,4.68602362 19.7462985,4.49114173 C20.6266507,3.85334646 21.392557,3.04724409 22,2.13484252 C21.190076,2.4980315 20.3185274,2.73720472 19.4029612,2.8523622 C20.3361345,2.29429134 21.0492197,1.3996063 21.392557,0.336614173 C20.5210084,0.859251969 19.552621,1.23129921 18.522609,1.43503937 C17.695078,0.549212598 16.5242097,0 15.230092,0 C12.7386955,0 10.7138856,2.03740157 10.7138856,4.54429134 C10.7138856,4.89862205 10.7579032,5.24409449 10.8283313,5.58070866 C7.07803121,5.39468504 3.75030012,3.57874016 1.5230092,0.832677165 C1.13565426,1.50590551 0.915566226,2.28543307 0.915566226,3.11811024 C0.915566226,4.69488189 1.71668667,6.08562992 2.92276911,6.90059055 C2.18327331,6.87401575 1.48779512,6.67027559 0.880352141,6.33366142 L0.880352141,6.39566929 C0.880352141,8.59251969 2.43857543,10.4350394 4.49859944,10.851378 C4.12004802,10.9576772 3.72388956,11.0108268 3.31012405,11.0108268 C3.01960784,11.0108268 2.73789516,10.984252 2.46498599,10.9311024 C3.03721489,12.738189 4.70988395,14.0492126 6.68187275,14.0846457 C5.13245298,15.3070866 3.18687475,16.0334646 1.07402961,16.0334646 C0.713085234,16.0334646 0.352140856,16.015748 0,15.9714567 C1.98959584,17.2470472 4.36654662,18 6.91076431,18" id="Fill-1"></path>
                </g>
            </g>
        </g>
    </g>
</svg>