<?xml version="1.0" encoding="UTF-8" standalone="no"?>
<!DOCTYPE svg PUBLIC "-//W3C//DTD SVG 1.1//EN" "http://www.w3.org/Graphics/SVG/1.1/DTD/svg11.dtd">
<svg width="100%" height="100%" viewBox="0 0 46 46" version="1.1" xmlns="http://www.w3.org/2000/svg" xmlns:xlink="http://www.w3.org/1999/xlink" xml:space="preserve" xmlns:serif="http://www.serif.com/" style="fill-rule:evenodd;clip-rule:evenodd;">
    <g transform="matrix(1,0,0,1,1,1)">
        <g id="Page-1">
            <g id="_1---HOME-FIN-A-WIDE" serif:id="1---HOME-FIN-A-WIDE">
                <g id="Group-3">
                    <circle id="Oval" cx="22" cy="22" r="22" style="fill:none;stroke:white;stroke-width:0.5px;"/>
                    <path id="Shape" d="M20.726,27.285C22.205,27.286 23.64,26.785 24.796,25.864L28.77,29.839L29.839,28.769L25.866,24.793C27.104,23.229 27.562,21.185 27.111,19.241C26.661,17.297 25.35,15.663 23.55,14.803C21.749,13.942 19.656,13.947 17.86,14.818C16.065,15.688 14.763,17.328 14.323,19.275C13.882,21.222 14.351,23.262 15.597,24.821C16.844,26.38 18.731,27.287 20.726,27.285L20.726,27.285ZM20.726,15.675C22.065,15.675 23.348,16.207 24.294,17.154C25.241,18.1 25.773,19.384 25.773,20.723C25.773,22.062 25.241,23.345 24.294,24.292C23.348,25.239 22.065,25.771 20.726,25.771C19.388,25.771 18.105,25.239 17.158,24.292C16.211,23.345 15.68,22.062 15.68,20.723C15.68,19.384 16.211,18.1 17.158,17.154C18.105,16.207 19.388,15.675 20.726,15.675Z" style="fill:white;fill-rule:nonzero;"/>
                </g>
            </g>
        </g>
    </g>
</svg>
