<?xml version="1.0" encoding="UTF-8"?>
<svg width="50px" height="50px" viewBox="0 0 50 50" version="1.1" xmlns="http://www.w3.org/2000/svg" xmlns:xlink="http://www.w3.org/1999/xlink">
    <title>Shape Copy 6</title>
    <g id="Page-1" stroke="none" stroke-width="1" fill="none" fill-rule="evenodd">
        <g id="5---Grants-FIN-A" transform="translate(-1103.000000, -2399.000000)" fill="#81A1C1" fill-rule="nonzero">
            <g id="Group-14" transform="translate(938.000000, 2399.000000)">
                <path d="M195.55625,25 C195.55625,28.06875 193.06875,30.55625 190,30.55625 C186.93125,30.55625 184.44375,28.0708333 184.44375,25 C184.44375,21.93125 186.93125,19.44375 190,19.44375 C193.06875,19.44375 195.55625,21.93125 195.55625,25 Z M203.56875,18.2666667 C203.647917,20.0229167 203.664583,20.55 203.664583,25 C203.664583,29.45 203.647917,29.9770833 203.56875,31.7354167 C203.360417,36.2145833 201.258333,38.3625 196.7375,38.5666667 C194.979167,38.6458333 194.452083,38.6645833 190,38.6645833 C185.55,38.6645833 185.020833,38.6479167 183.266667,38.56875 C178.7375,38.3625 176.639583,36.2104167 176.435417,31.7375 C176.354167,29.9770833 176.335417,29.45 176.335417,25 C176.335417,20.55 176.354167,20.0229167 176.433333,18.2666667 C176.639583,13.7833333 178.74375,11.6395833 183.264583,11.4354167 C185.022917,11.3541667 185.55,11.3375 190,11.3375 C194.45,11.3375 194.979167,11.3541667 196.735417,11.4333333 C201.252083,11.6395833 203.360417,13.7833333 203.56875,18.2666667 Z M198.558333,25 C198.558333,20.2729167 194.725,16.4416667 190,16.4416667 C185.272917,16.4416667 181.441667,20.2729167 181.441667,25 C181.441667,29.7270833 185.275,33.5583333 190,33.5583333 C194.727083,33.5583333 198.558333,29.7270833 198.558333,25 Z M200.895833,16.1041667 C200.895833,15 200,14.1041667 198.895833,14.1041667 C197.791667,14.1041667 196.895833,15 196.895833,16.1041667 C196.895833,17.2083333 197.791667,18.1041667 198.895833,18.1041667 C200.002083,18.1041667 200.895833,17.2083333 200.895833,16.1041667 L200.895833,16.1041667 Z M215,0 L215,50 L165,50 L165,0 L215,0 Z M206.666667,25 C206.666667,20.475 206.647917,19.90625 206.566667,18.1291667 C206.29375,12.0833333 202.93125,8.7125 196.872917,8.43541667 C195.09375,8.35208333 194.527083,8.33333333 190,8.33333333 C185.472917,8.33333333 184.908333,8.35208333 183.129167,8.43333333 C177.075,8.71041667 173.7125,12.06875 173.433333,18.1270833 C173.352083,19.90625 173.333333,20.475 173.333333,25 C173.333333,29.5270833 173.352083,30.09375 173.433333,31.8708333 C173.7125,37.925 177.070833,41.2895833 183.129167,41.5666667 C184.908333,41.6479167 185.472917,41.6666667 190,41.6666667 C194.527083,41.6666667 195.09375,41.6479167 196.872917,41.5666667 C202.91875,41.2895833 206.29375,37.93125 206.566667,31.8708333 C206.647917,30.09375 206.666667,29.5270833 206.666667,25 Z" id="Shape-Copy-6"></path>
            </g>
        </g>
    </g>
</svg>