<?xml version="1.0" encoding="UTF-8"?>
<svg width="46px" height="46px" viewBox="0 0 46 46" version="1.1" xmlns="http://www.w3.org/2000/svg" xmlns:xlink="http://www.w3.org/1999/xlink">
    <title>Group 3</title>
    <g id="Page-1" stroke="none" stroke-width="1" fill="none" fill-rule="evenodd">
        <g id="1---HOME-FIN-A-WIDE" transform="translate(-1469.000000, -40.000000)">
            <g id="Group-3" transform="translate(1470.000000, 41.000000)">
                <circle id="Oval" stroke="#787878" stroke-width="0.5" cx="22" cy="22" r="22"></circle>
                <path d="M20.7262987,27.2847218 C22.2046881,27.2857076 23.6397305,26.7848841 24.7958182,25.8641025 L28.769712,29.8390805 L29.8390805,28.7694202 L25.866196,24.7934327 C27.1040828,23.2288814 27.5624052,21.1851623 27.1109961,19.2410826 C26.660571,17.2969776 25.3497412,15.66335 23.550135,14.8027357 C21.7494691,13.942071 19.6559714,13.9470176 17.8602761,14.8175234 C16.0645303,15.688031 14.7626574,17.3284981 14.3228799,19.2745463 C13.8823201,21.2216041 14.3514616,23.2623956 15.5972508,24.8210918 C16.844019,26.3797374 18.7314545,27.2867138 20.726223,27.2847452 L20.7262987,27.2847218 Z M20.7262987,15.6752623 C22.0647314,15.6752623 23.3480593,16.2066475 24.2942245,17.1540551 C25.2413737,18.1004784 25.7726139,19.3840556 25.7726139,20.7229543 C25.7726139,22.0618531 25.2413737,23.3454303 24.2942245,24.2918536 C23.3480593,25.2392612 22.0648323,25.7706464 20.7262987,25.7706464 C19.3877651,25.7706464 18.1045381,25.2392612 17.1583729,24.2918536 C16.2112237,23.3454303 15.6799835,22.0618531 15.6799835,20.7229543 C15.6799835,19.3840556 16.2112237,18.1004784 17.1583729,17.1540551 C18.1045381,16.2066475 19.3877651,15.6752623 20.7262987,15.6752623 Z" id="Shape" fill="#666666" fill-rule="nonzero"></path>
            </g>
        </g>
    </g>
</svg>