<?xml version="1.0" encoding="UTF-8"?>
<svg width="32px" height="30px" viewBox="0 0 32 30" version="1.1" xmlns="http://www.w3.org/2000/svg" xmlns:xlink="http://www.w3.org/1999/xlink">
    <title>Google_Drive-Logo.wine</title>
    <defs>
        <filter x="-29.5%" y="-32.5%" width="159.1%" height="165.0%" filterUnits="objectBoundingBox" id="filter-1">
            <feOffset dx="0" dy="1" in="SourceAlpha" result="shadowOffsetOuter1"></feOffset>
            <feGaussianBlur stdDeviation="1" in="shadowOffsetOuter1" result="shadowBlurOuter1"></feGaussianBlur>
            <feColorMatrix values="0 0 0 0 0   0 0 0 0 0   0 0 0 0 0  0 0 0 0.20525056 0" type="matrix" in="shadowBlurOuter1" result="shadowMatrixOuter1"></feColorMatrix>
            <feMerge>
                <feMergeNode in="shadowMatrixOuter1"></feMergeNode>
                <feMergeNode in="SourceGraphic"></feMergeNode>
            </feMerge>
        </filter>
    </defs>
    <g id="Page-1" stroke="none" stroke-width="1" fill="none" fill-rule="evenodd">
        <g id="5-FACSE-V5---MATERIALS" transform="translate(-986.000000, -1010.000000)" fill-rule="nonzero">
            <g id="Google_Drive-Logo.wine" filter="url(#filter-1)" transform="translate(991.000000, 1015.000000)">
                <path d="M1.66323024,17.1410256 L2.63344788,18.8461538 C2.83505155,19.2051282 3.12485682,19.4871795 3.465063,19.6923077 L6.930126,13.5897436 L0,13.5897436 C0,13.9871795 0.100801833,14.3846154 0.302405498,14.7435897 L1.66323024,17.1410256 Z" id="Path" fill="#0066DA"></path>
                <path d="M11,6.41025641 L7.534937,0.307692308 C7.19473081,0.512820513 6.90492554,0.794871795 6.70332188,1.15384615 L0.302405498,12.4358974 C0.104509576,12.7871303 0.00026348665,13.1848874 0,13.5897436 L6.930126,13.5897436 L11,6.41025641 Z" id="Path" fill="#00AC47"></path>
                <path d="M18.534937,19.6923077 C18.8751432,19.4871795 19.1649485,19.2051282 19.3665521,18.8461538 L19.7697595,18.1410256 L21.6975945,14.7435897 C21.8991982,14.3846154 22,13.9871795 22,13.5897436 L15.06937,13.5897436 L16.5441008,16.5384615 L18.534937,19.6923077 Z" id="Path" fill="#EA4335"></path>
                <path d="M11,6.41025641 L14.465063,0.307692308 C14.1248568,0.102564103 13.7342497,0 13.3310424,0 L8.66895762,0 C8.26575029,0 7.87514318,0.115384615 7.534937,0.307692308 L11,6.41025641 Z" id="Path" fill="#00832D"></path>
                <path d="M15.069874,13.5897436 L6.930126,13.5897436 L3.465063,19.6923077 C3.80526919,19.8974359 4.19587629,20 4.59908362,20 L17.4009164,20 C17.8041237,20 18.1947308,19.8846154 18.534937,19.6923077 L15.069874,13.5897436 Z" id="Path" fill="#2684FC"></path>
                <path d="M18.4971363,6.79487179 L15.2966781,1.15384615 C15.0950745,0.794871795 14.8052692,0.512820513 14.465063,0.307692308 L11,6.41025641 L15.069874,13.5897436 L21.9873998,13.5897436 C21.9873998,13.1923077 21.8865979,12.7948718 21.6849943,12.4358974 L18.4971363,6.79487179 Z" id="Path" fill="#FFBA00"></path>
            </g>
        </g>
    </g>
</svg>