<?xml version="1.0" encoding="UTF-8"?>
<svg width="18px" height="18px" viewBox="0 0 18 18" version="1.1" xmlns="http://www.w3.org/2000/svg" xmlns:xlink="http://www.w3.org/1999/xlink">
    <!-- Generator: Sketch 63 (92445) - https://sketch.com -->
    <title>Group 23</title>
    <desc>Created with Sketch.</desc>
    <g id="Page-1" stroke="none" stroke-width="1" fill="none" fill-rule="evenodd">
        <g id="01.3-SEARCH---desktop,-W1960" transform="translate(-1861.000000, -45.000000)" fill="#FFFFFF">
            <g id="Group-24" transform="translate(1834.000000, 45.000000)">
                <g id="Group-23" transform="translate(27.000000, 0.000000)">
                    <path d="M16.7514118,7.00168821e-15 C17.2918043,7.00168821e-15 17.7298972,0.438024094 17.7298972,0.978554218 L17.7298972,0.978554218 L17.7298972,16.7514118 C17.7298972,17.2918731 17.2917355,17.7300348 16.7514118,17.7300348 L16.7514118,17.7300348 L12.2333724,17.7300348 L12.2333724,10.8639882 L14.5379694,10.8639882 L14.8830501,8.188168 L12.2333724,8.188168 L12.2333724,6.47982587 C12.2333724,5.70511419 12.4484975,5.17717373 13.5594152,5.17717373 L14.9763375,5.17655457 L14.9763375,2.78327953 C14.7312862,2.75067023 13.8901864,2.67781527 12.9116321,2.67781527 C10.8687351,2.67781527 9.47011255,3.92481146 9.47011255,6.21482371 L9.47011255,8.188168 L7.15959909,8.188168 L7.15959909,10.8639882 L9.47011255,10.8639882 L9.47011255,17.7300348 L0.978554218,17.7300348 C0.437955298,17.7300348 -1.4191386e-13,17.2918043 -1.4191386e-13,16.7514118 L-1.4191386e-13,16.7514118 L-1.4191386e-13,0.978554218 C-1.4191386e-13,0.438024094 0.438024094,7.00168821e-15 0.978554218,7.00168821e-15 L0.978554218,7.00168821e-15 Z" id="Combined-Shape"></path>
                </g>
            </g>
        </g>
    </g>
</svg>