<?xml version="1.0" encoding="UTF-8"?>
<svg width="40px" height="40px" viewBox="0 0 40 40" version="1.1" xmlns="http://www.w3.org/2000/svg" xmlns:xlink="http://www.w3.org/1999/xlink">
    <title>Group 9</title>
    <g id="Page-1" stroke="none" stroke-width="1" fill="none" fill-rule="evenodd">
        <g id="1.7--HOME-FIN-MENU" transform="translate(-1043.000000, -794.000000)" fill="#FFFFFF" fill-rule="nonzero">
            <g id="Group-9" transform="translate(1043.000000, 794.000000)">
                <path d="M17.8067656,29.8746459 C17.8067656,29.9238061 17.8067656,29.9852564 17.7803009,30.0194929 C17.6010244,30.2573933 17.3876,30.4557899 17.1075872,30.5611332 C16.8642834,30.6524307 16.6704941,30.5409424 16.6192722,30.2810955 C16.5987835,30.1783858 16.5979298,30.0704089 16.5979298,29.9650655 C16.5970761,28.029382 16.5919539,24.0605724 16.5893928,24.0122901 L15.2004268,24.0122901 C15.2004268,24.0658396 15.1987195,29.5946082 15.2021342,30.6392628 C15.2029879,30.921934 15.2320137,31.2028496 15.3464091,31.46533 C15.4693416,31.749757 15.6733753,31.9297185 15.9772916,31.9815123 C16.2001067,32.021016 16.4177996,31.9955581 16.6295166,31.9209399 C17.063195,31.7673142 17.4029666,31.4776201 17.7026144,31.1299871 C17.7290791,31.099262 17.7572511,31.0694147 17.8076193,31.0141095 L17.8076193,31.8814361 L19.2,31.8814361 L19.2,28.086443 C19.2,26.7714072 19.2,24 19.2,24 L17.8067656,24.0035114 L17.8067656,29.8746459 L17.8067656,29.8746459 Z" id="Path-Copy-3"></path>
                <path d="M23.7770368,24.3526267 C23.4847307,23.6838863 22.870378,23.5068936 22.3375992,23.6501299 C22.0147029,23.7377139 21.7529869,23.937515 21.538006,24.1957054 C21.4666289,24.282377 21.388454,24.4502464 21.388454,24.4502464 C21.388454,24.4502464 21.388454,21.9805596 21.388454,20.8 L20,20.8 L20,31.8894139 L21.388454,31.8894139 L21.388454,31.2672025 C21.388454,31.2672025 21.4870224,31.3794195 21.5227109,31.4204745 C21.8413586,31.7917942 22.2279844,31.9952446 22.7046813,31.9999046 C23.2909929,32.0061926 23.6988619,31.7014732 23.8841024,31.1029824 C23.9699249,30.8247207 23.9979659,30.538248 23.9988156,30.2481259 C24.000515,28.6980713 24.000515,27.1480166 23.9979659,25.597962 C23.9979659,25.1691652 23.9495314,24.7477584 23.7770368,24.3526267 Z M22.5687249,30.0630135 C22.5687249,30.1460358 22.5593779,30.2299705 22.5432331,30.3111682 C22.4795036,30.6359589 22.2492276,30.7819323 21.9229324,30.7098579 C21.7249459,30.6660659 21.5702956,30.5438132 21.4377382,30.3896289 C21.4317901,30.3823302 21.3927027,30.3257655 21.3927027,30.3257655 L21.3927027,30.2044252 L21.3893038,25.2805612 C21.3893038,25.2805612 21.4190442,25.1893278 21.4844732,25.1282015 C21.6476208,24.9731048 21.8277629,24.8754851 22.0529406,24.8992057 C22.2449789,24.9192771 22.3979298,25.0141598 22.4693069,25.2048375 C22.5228397,25.3498985 22.565326,25.5113815 22.5661757,25.6664782 C22.5729736,27.1315946 22.5704244,28.5968023 22.5687249,30.0630135 Z" id="Shape-Copy"></path>
                <path d="M19.2,15.2 C19.6411637,15.2 20,14.9226358 20,14.5816363 L20,10.2183637 C20,9.87736419 19.6410479,9.6 19.2,9.6 C18.7589521,9.6 18.4,9.87745369 18.4,10.2183637 L18.4,14.5816363 C18.3998842,14.9225463 18.7588363,15.2 19.2,15.2 Z" id="Path-Copy-4"></path>
                <polygon id="Path-Copy-5" points="15.2 20.8 10.4 20.8 10.4 22.4050415 12.0172438 22.4050415 12.0172438 32 13.579364 32 13.579364 22.4013558 15.2 22.4013558"></polygon>
                <path d="M27.9305914,29.0867697 L27.9305914,30.0629856 C27.9305914,30.4041955 27.6070133,30.6802114 27.2079997,30.6802114 C26.8079936,30.6802114 26.4844155,30.4041955 26.4844155,30.0629856 L26.4844155,28.1638943 L29.59017,28.1638943 C29.59017,28.1638943 29.6080363,26.8388484 29.5951328,26.2377094 C29.59017,25.981167 29.5673409,25.7212378 29.5058015,25.4706221 C29.345005,24.820376 28.9350732,24.3301513 28.1678158,24.115096 C27.9425022,24.0515954 27.7003149,24.018575 27.4630905,24.0058749 C26.6739966,23.9626945 25.9831672,24.1548897 25.4432086,24.6705145 C24.9697523,25.1217922 24.8049855,25.6653573 24.8039929,26.2546429 C24.8010152,27.3815669 24.7950598,28.5093375 24.8079632,29.6362615 C24.8119335,29.9232843 24.8496512,30.2162337 24.9260791,30.4956363 C25.0908459,31.0959287 25.4749709,31.5675265 26.1528968,31.8283023 C26.6481897,32.0196508 27.1712746,32.0289642 27.6993224,31.9629236 C28.5509482,31.8562426 29.1316022,31.4667722 29.4124998,30.7648789 C29.6239174,30.2390939 29.5991031,29.0867697 29.5991031,29.0867697 L27.9305914,29.0867697 L27.9305914,29.0867697 Z M26.4844155,25.920291 C26.4844155,25.5799278 26.8079936,25.3030652 27.2079997,25.3030652 C27.6070133,25.3030652 27.9305914,25.5799278 27.9305914,25.920291 L27.9305914,26.9862545 L26.4844155,26.9862545 L26.4844155,25.920291 Z" id="Shape-Copy-2"></path>
                <path d="M0,0 L0,40 L40,40 L40,0 L0,0 Z M22.5339071,8.33737446 L23.9905558,8.33737446 L23.9905558,14.3778676 C23.9905558,14.4579149 23.9969631,14.5388398 24.0110065,14.6173071 C24.0551553,14.8662259 24.2392113,14.9834003 24.4789141,14.9002811 C24.771104,14.7991688 24.9941303,14.5968565 25.1831892,14.3584702 C25.2100472,14.3244151 25.205132,14.2608688 25.205132,14.2109271 L25.205132,8.33737446 L26.672401,8.33737446 L26.6719622,16.2581874 L25.204342,16.2581874 L25.2060975,15.4072468 C25.0438087,15.5670779 24.905306,15.7163765 24.7531109,15.8504908 C24.4833027,16.0881748 24.1776838,16.2653846 23.8201922,16.3353382 C23.2713596,16.4425944 22.8038909,16.2691588 22.6288754,15.7007533 C22.5705954,15.5114311 22.5353992,15.3073633 22.5339071,15.1097029 L22.5339071,8.33737446 Z M19.2001861,8.1390996 L19.2001861,8.1390996 C20.3608708,8.1390996 21.3017767,9.08000553 21.3017767,10.2406902 L21.3017767,14.3535551 C21.3017767,15.5142398 20.3608708,16.4551457 19.2001861,16.4551457 L19.2001861,16.4551457 C18.0395014,16.4551457 17.0985954,15.5142398 17.0985954,14.3535551 L17.0985954,10.2406902 C17.0985077,9.08000553 18.0394136,8.1390996 19.2001861,8.1390996 Z M13.5468511,5.53572173 C13.5468511,5.53572173 14.2143501,8.37081524 14.5329591,9.71380047 L14.5334858,9.71380047 C14.8520948,8.37081524 15.5195938,5.53572173 15.5195938,5.53572173 L17.1897896,5.53572173 C17.1897896,5.53572173 15.9065765,9.79147787 15.3327292,11.6894396 C15.3120152,11.7579888 15.3026237,11.8325942 15.3026237,11.9044787 L15.3033259,16.2565197 L13.7632068,16.2565197 L13.7638212,11.9044787 C13.7638212,11.8325942 13.7543419,11.7580766 13.7337157,11.6894396 C13.1598684,9.79147787 11.8766553,5.53572173 11.8766553,5.53572173 L13.5468511,5.53572173 Z M31.9117199,30.7957984 C31.9117199,32.7425609 30.3564164,34.3329727 28.4105317,34.3742251 C22.8045931,34.4944715 17.1960213,34.4944715 11.589205,34.3742251 C9.644198,34.3329727 8.08889455,32.7425609 8.08889455,30.7957984 L8.08889455,22.0397559 C8.08889455,20.0938712 9.644198,18.5034593 11.589205,18.4622069 C17.1960213,18.3419605 22.8045931,18.3419605 28.4105317,18.4622069 C30.3564164,18.5034593 31.9117199,20.0938712 31.9117199,22.0397559 L31.9117199,30.7957984 Z" id="Shape-Copy-3"></path>
            </g>
        </g>
    </g>
</svg>