<?xml version="1.0" encoding="UTF-8"?>
<svg width="65px" height="65px" viewBox="0 0 65 65" version="1.1" xmlns="http://www.w3.org/2000/svg" xmlns:xlink="http://www.w3.org/1999/xlink">
    <!-- Generator: Sketch 53.2 (72643) - https://sketchapp.com -->
    <title>Group</title>
    <desc>Created with Sketch.</desc>
    <g id="Page-1" stroke="none" stroke-width="1" fill="none" fill-rule="evenodd">
        <g id="1-IDEAg-19-FF-About" transform="translate(-688.000000, -443.000000)" fill="#FFFFFF" fill-rule="nonzero">
            <g id="Group" transform="translate(688.000000, 443.000000)">
                <path d="M32.5,65 C14.5795,65 0,50.4205 0,32.5 C0,14.5795 14.5795,0 32.5,0 C50.4205,0 65,14.5795 65,32.5 C65,50.4205 50.4205,65 32.5,65 Z M32.5,3.0472 C16.2604,3.0472 3.0472,16.2604 3.0472,32.5 C3.0472,48.7396 16.2604,61.9528 32.5,61.9528 C48.7396,61.9528 61.9528,48.7396 61.9528,32.5 C61.9528,16.2604 48.7396,3.0472 32.5,3.0472 Z" id="Shape"></path>
                <path d="M41.6369871,28.5579839 L34.2608676,37.371138 C34.1877812,37.4699316 34.1068704,37.5635206 34.0076847,37.6441182 C33.7518959,37.8547034 33.4517328,37.971693 33.1463245,37.9976892 C33.0993429,38.0028885 33.0497514,37.9976892 33.0001585,37.9976892 C32.9531769,37.9976892 32.9035854,38.0028885 32.8539925,37.9976892 C32.5459983,37.971691 32.2458352,37.8547034 31.9926323,37.6441182 C31.8960592,37.5635272 31.8151417,37.4725339 31.742062,37.3737403 L24.3632697,28.557924 C23.8099305,27.8949807 23.8986724,26.9122295 24.5616412,26.3610912 C25.2272159,25.8099396 26.2138679,25.9009264 26.7671938,26.5586784 L33.0001117,34.004802 L39.2304237,26.5613406 C39.783763,25.8983973 40.7730009,25.8100062 41.4359764,26.3637534 C42.101551,26.9123093 42.190293,27.8976362 41.6369537,28.5579905 L41.6369871,28.5579839 Z" id="Path"></path>
            </g>
        </g>
    </g>
</svg>